<?xml version="1.0" encoding="UTF-8"?>
<svg id="b" xmlns="http://www.w3.org/2000/svg" version="1.1" viewBox="0 0 440.5 180.1">
  <defs>
    <style>
      .st0 {
        fill: #297de3;
      }

      .st1 {
        fill: #2ab9ed;
      }

      .st2 {
        fill: #0a91d6;
      }

      .st3 {
        fill: #4DA3FF;
      }

      .st4 {
        fill: #25d0ee;
      }

      .st5 {
        fill: #46dff1;
      }
    </style>
  </defs>
  <g id="c">
    <g>
      <g>
        <g>
          <polygon class="st5" points="82.1 0 82.1 46.3 80.1 47.4 42 25.5 39.9 24.3 42 23.1 82.1 0"/>
          <polygon class="st3" points="42 71.8 42 120.6 39.9 119.4 0 96.4 0 93.5 39.9 70.6 42 71.8"/>
          <polygon class="st2" points="42 71.8 0 93.5 0 47.6 42 71.8"/>
          <polygon class="st4" points="82.1 46.3 42 71.8 39.9 24.3 82.1 46.3"/>
          <polygon class="st1" points="39.9 24.3 42 71.8 39.9 70.6 0 47.6 0 47.3 39.9 24.3 39.9 24.3"/>
        </g>
        <g>
          <polygon class="st5" points="59.6 180.1 59.6 133.9 61.6 132.7 99.7 154.6 101.8 155.8 99.7 157.1 59.6 180.1"/>
          <polygon class="st3" points="99.7 108.3 99.7 59.5 101.8 60.8 141.7 83.7 141.7 86.6 101.8 109.6 99.7 108.3"/>
          <polygon class="st2" points="99.7 108.3 141.7 86.6 141.7 132.5 99.7 108.3"/>
          <polygon class="st4" points="59.6 133.9 99.7 108.3 101.8 155.8 59.6 133.9"/>
          <polygon class="st1" points="101.8 155.8 99.7 108.3 101.8 109.6 141.7 132.5 141.7 132.9 101.8 155.8 101.8 155.8"/>
        </g>
      </g>
      <path class="st0" d="M45.8,86.6h0c13.4,0,24.2-10.9,24.2-24.2h0c0,13.4,10.9,24.2,24.2,24.2h0c-13.4,0-24.2,10.9-24.2,24.2h0c0-13.4-10.9-24.2-24.2-24.2Z"/>
      <g fill="#FFFFFF">
        <path d="M431.7,57.1l.2-20.5h8.5c0,.1,0,29.5,0,29.5l-12.9.2c-2.6,0-5.6-2.1-7.9-4.3-5.4,5.6-14.4,5.9-19.6.2-3,2.6-6.2,4.1-10,4.1h-38.2c-2.3,0-5.3-2.3-7.2-4.2-5.2,5.5-22,6.2-26.9.2-2.6,1.9-6.1,4-9.3,4h-17c0-.1.1-8.5.1-8.5l18.3-.3c1.9-3.5,2.1-10.6-1.3-13.6-3.1-2.7-7.8-1.8-13-1.8l-.2-8.4c5.5,0,9.8-.2,14.6.8,13.2,2.7,6,21.2,13.2,22.6,4.8,1,9,.6,14.4.3l.4-20.5,8.1-.3v12.7c0,4.2,1.5,8.4,6.3,8.4h40.7c0,0,.7-13.9.7-13.9l7.9-.3v6.9c.2,2.5,1.5,5.7,3.6,6.8,1.9.9,6,.7,7.5-.9l.3-15.5h8.1c.2,5.2,0,9.3,1.1,14.3.7,2.9,7.1,3.3,9.3,2.2h0Z"/>
        <path d="M197.6,73.8c0,1.7-6,1.8-6.5.2,0-3.7-.2-9.2,0-12.9.3-8.9,7.9-14.2,16.2-13.9,2.6,0,5.4-.1,7.9-.4,4.1-9.3,14.1-13.8,23.2-10.6s14.3,12.7,12.2,22.9h27.1c.8-9.3-5.7-15.8-14.4-18-.9-1.5-1.1-5.7,0-7.2l24.1-15.4c.7,2.6.9,6.5-.1,8.6l-14.6,9.1c12.8,7.3,14.2,16.9,13.6,29.7-13.3.4-25.9-.6-38.8.7-5.9,3.4-11.5,9.2-20.2,6-10.6-3.9-11.8-10.4-14-18-.3-1.1-8.6-1.9-12.4,1-1.6,1.2-3.1,4.6-3.1,7.1v10.9c-.1,0-.1,0-.1,0ZM229.6,42.6c-7,1.5-10.1,8.4-8.8,14.6,1.4,6.7,8.3,10.6,14.9,8.7,6.2-1.8,10.2-8.4,8.3-15-1.7-6-7.6-9.8-14.4-8.4Z"/>
        <path d="M340.2,18.8c2.4-.6,5.4.2,5.9,2,.5,2-.3,5-2.2,5.9-1.4.7-4.4-.2-5.4-1.5-1.4-1.7-.8-5.7,1.7-6.4Z"/>
      </g>
    </g>
  </g>
  <g fill="#FFFFFF">
    <path d="M193.5,122.8h6.8c.3,2.8,1.5,5.1,6.2,5.1s5.2-1.7,5.2-4.2-1.3-3.4-5.9-4.1c-8.1-1.1-11.4-3.5-11.4-9.5s4.5-9.4,11.4-9.4,11.2,3.2,11.8,9.4h-6.6c-.4-2.9-2.1-4.2-5.2-4.2s-4.7,1.5-4.7,3.6,1,3.3,5.9,4c7.6,1,11.5,3,11.5,9.5s-4.6,10-12,10-12.6-4-13-10.3Z"/>
    <path d="M229.6,101.2h9.3l10.2,31.5h-7.4l-2.2-7h-11.4l-2.2,7h-6.7l10.3-31.5ZM229.6,120.6h8.3l-4.1-13.6-4.2,13.6Z"/>
    <path d="M252.5,101.2h8.3l12,20.7v-20.7h6.3v31.5h-7.1l-13.1-22.4v22.4h-6.3v-31.5Z"/>
    <path d="M292.9,101.2h9.3l10.2,31.5h-7.4l-2.2-7h-11.4l-2.2,7h-6.7l10.3-31.5ZM292.9,120.6h8.3l-4.1-13.6-4.2,13.6Z"/>
    <path d="M315.8,101.2h10.3c11,0,16.5,6,16.5,15.4v.4c0,9.4-5.5,15.7-16.5,15.7h-10.3v-31.5ZM325.8,127.1c6.3,0,9.3-3.6,9.3-10.1v-.4c0-6.5-2.8-9.9-9.4-9.9h-2.8v20.4h2.9Z"/>
    <path d="M346.8,101.2h7.1v13.6l11-13.6h7.6l-12.5,14.9,13.1,16.6h-8.3l-10.9-14.1v14.1h-7.1v-31.5Z"/>
    <path d="M371.9,117.1v-.4c0-9.4,6.9-16,16.2-16s16.2,6.4,16.2,15.8v.4c0,9.4-6.4,16.2-16.2,16.2s-16.2-6.8-16.2-16ZM396.8,117v-.4c0-6.1-3.3-10.3-8.8-10.3s-8.8,4-8.8,10.3v.4c0,6.4,3.7,10.4,8.8,10.4s8.7-4.1,8.7-10.4Z"/>
    <path d="M408.5,101.2h9.4l7.3,19.6,7.3-19.6h9.2v31.5h-7.1v-22.1l-8.7,22.1h-2.3l-8.8-22.1v22.1h-6.4v-31.5Z"/>
  </g>
</svg>
