<?xml version="1.0" encoding="UTF-8"?>
<svg id="a" data-name="Layer 1" xmlns="http://www.w3.org/2000/svg" viewBox="0 0 371 155">
  <path d="M369.59,77.98c-.03-2.36-.17-6.22-.26-8-2.22,1.8-4.32,3.6-11.23,7.58l-1.8.98v-1.29c0-.15.51-17.69-8.02-32.82-.54.72-2.33,3-4.18,5.34,1.09-.13,2.19.17,3.19,1.14,1.76,1.73,4.64,5.9,6.31,10.22.91,2.71,1.62,6.4,1.43,9.56h0s-1.03,17.86-3.07,34.98c-1.86,15.55-2.88,17.59-2.88,17.59-1.19-1.44-1.68-3.26-1.96-4.3l-.17.15s-1.09-1.55-1.74-4.62c-.74-3.48-.87-9.72-.79-12.73v.02s.04-.88-.69-2.39c-.34-.72-.61-1.42-.79-2.18,0,0-.01-.02-.01-.03-1.12-4.78-3.31-6.13-4.51-7.61-1.45-1.78-2.51-3.65-3.16-5.19-.04.03-.06.05-.12.1-.8.76-1.39,1.53-1.42,1.97.27,2.79.53,4.78.12,6.2-.18-.1-.44-.37-.59-.48.19,1.85-.69,3.99-.13,5.68l-1.09-.14c.04.12.09.22.12.27.15.2.29.33.56.47.05.03.27.13.35.17.1.04.37.15,1.12.4.63-1.39.15-2.73-.48-3.48-.52-.63.1-1.56,1.18-1.08,1.39.62,2.91,1.49,4.5,3.01,2.28,2.16,2.95,4.26,2.47,4.67-.37.32-.66.25-1.11.1,0,.08-.01.16-.03.24-.13.41-.47.71-.98.85l-.05.08c-.24.34-.64.47-1.33.45-.59-.01-1.24-.35-1.33-.4-.12-.06-.27-.15-.45-.33-.13.1-.26.21-.4.33,1.8,2.44,5.26,6.45,7.74,10.85,1.77,3.15,2.58,5.78,2.58,5.78,0,0-.94.31-2.18.03.44,1.26.67,2.36.58,3.22-.95.03-2.2-.09-3.5-.81.04.2.07.4.1.61,1.11.8,2.35,1.72,2.89,2.1-5.42,2.54-13.27,1.38-13.42,1.36-.37-.05-.71-.1-1.01-.15-.05.14-.12.32-.19.49.53,1.26,1.76,4.18,2.04,4.77,3.44,1.57,6.64,2.61,11.58,1.79,0,0,.84-.08,2.94-.78,2.16-.73,6.21-3.1,9.31-6.01,3.87-3.63,6.22-7.45,6.98-8.95,6-11.71,6.99-29.09,6.99-36.11,0-2.31,0-3.55,0-3.65M332.12,136.56s-1.98-5.09-3.17-8.15c-.29.4-.57.71-.64.7-.05,0-.5-.25-1.08-.78.45,2.41.86,5.42.97,7.67,1.7-.7,3.06-.17,3.93.56M327.15,138.08c.1-2.18-.78-8.02-1.33-11.35-.06-.09-.12-.18-.18-.27-.11-.15-.21-.3-.32-.46-.19.66-.43,1.37-.75,2.06-.37.83-.96,1.68-1.08,1.67-.1-.01-1.67-1.12-2.67-3.3-1,2.14-2.55,3.23-2.65,3.24-.11.01-.7-.85-1.08-1.67-.17-.37-.31-.74-.44-1.11-.52,3.5-1.29,9.11-1.19,11.18-3.25-2.15-5.22,0-4.55,1.49.07.13.14.25.22.35.39.52.9.8,1.61.85,1.05.07,2.43.17,4,.91,1.43.67,2.98,1.79,4.56,3.75,1.57-1.96,3.12-3.07,4.55-3.75,1.57-.74,2.95-.84,4-.91.71-.06,1.21-.38,1.61-.85.09-.1.15-.22.22-.35.67-1.49-1.3-3.64-4.55-1.49M310.51,136.56c.87-.73,2.23-1.26,3.93-.56.1-2.06.43-5.15.88-7.87-.69.66-1.25.99-1.3.98-.1,0-.22-.11-.35-.28-1.31,3.2-3.14,7.69-3.16,7.74M310.83,131.68l.05-.13c.24-.64,1.32-3.24,1.88-4.55-.08-.23-.15-.46-.21-.69-.74.13-1.5.24-2.25.31-.5.05-7.97,1.2-13.39-1.34.66-.46,1.9-1.48,3.57-2.56.02-.11.04-.22.06-.33-1.3.73-2.55.85-3.51.81-.08-.85.15-1.96.59-3.22-1.24.28-2.18-.02-2.18-.02,0,0,.82-2.63,2.58-5.78,1.65-2.94,3.96-5.92,5.93-8.38.2-.97.96-1.78,1.05-1.88.05-.05.28-.31.32-.35-.22-.2-.44-.37-.64-.53-.22.23-.39.34-.53.41-.62.28-1.01.39-1.33.4-.69.03-1.09-.11-1.33-.45l-.04-.08c-.51-.14-.86-.44-.99-.85-.02-.09-.04-.17-.04-.26-.38.13-.65.15-.99-.14-.48-.41.19-2.5,2.47-4.67,1.59-1.51,3.1-2.39,4.5-3.01,1.08-.48,1.71.45,1.18,1.08-.63.76-1.11,2.09-.47,3.49.66-.22.91-.33,1.01-.36.25-.1.56-.19.9-.63.03-.05.07-.13.11-.24l-.95.12c.49-1.2-.26-4.13.23-6.03-.13.09-.46.31-.65.38-.35-1.73-.3-4.47-.16-5.81-.02-.35-.51-.95-1.18-1.63-.53,1.36-1.47,3.02-3.03,4.95-1.21,1.48-3.39,2.83-4.51,7.62,0,0,0,.02-.01.03-.18.76-.45,1.47-.79,2.18-.74,1.51-.69,2.4-.69,2.4v-.02c.07,3.01-.06,9.25-.8,12.73-.65,3.06-1.73,4.62-1.73,4.62l-.17-.15c-.28,1.04-.77,2.86-1.96,4.3,0,0-1.02-2.05-2.88-17.59-2.04-17.12-3.07-34.99-3.07-34.99h0c-.2-3.16.52-6.85,1.43-9.56,1.67-4.31,4.54-8.49,6.31-10.22,1.1-1.08,2.33-1.32,3.52-1.09-.33-.45-.7-.94-.7-.94-1.18-1.56-2.53-3.27-3.69-4.81-8.36,14.73-8.15,32.31-8.15,32.45v1.87s-1.46-.78-1.46-.78c-6.58-3.73-9.43-5.99-11.57-7.76-.09,1.78-.27,7.83-.27,7.83,0,.1,0,1.38,0,3.68,0,7.03,1.26,24.26,6.99,36.11.8,1.48,2.94,5.44,6.81,9.06,2.94,2.76,6.36,4.73,10.16,5.94.22.08.66.22.88.29,4.38,1.39,9.15,1.1,13.83-1.24M272.56,68.02c.82.69,4.96,4.2,11.48,7.92.15-3.9.26-17.94,8.66-32.92-.96-1.27-1.38-1.83-2.3-3.05-.69.72-1.57,1.22-2.87,1.61.05-2.97-.6-4.6-1.41-6.33-1.19.03-3.22.08-6.41-.6-4.24,9.06-6.38,19.52-7.16,33.38M279.76,34.56c.39-.23,1.71-1.06,2.52-2.2.41-.58.72-1.13.98-1.65-.03-.04-.87-1.12-.87-1.12-.95,1.61-1.83,3.27-2.63,4.97M284.04,29.13c.14-.25.28-.45.4-.6-2.08-2.73-3.49-4.56-3.62-4.73-.34-.42-1.2-2.15-.94-3.52-2.57-1.19-4.34-2.45-4.34-2.45,0,0,4.03,5.35,8.51,11.3M284.32,26.95c.22.29.45.6.69.91,3.42-4.38,7.99-7.52,13.5-9.59-.44-.65-1.05-2.09.56-3.66,0,0,0,0,.01,0,2.38.3,2.98,1.74,3.13,2.48,4.3-1.17,9.39-1.88,15.07-2.08.2-3.92,2.98-4.87,2.98-4.87,0,0,.05-.74.64-.99h.01c.59.25.65.99.65.99,0,0,2.78.95,2.98,4.87,5.69.2,10.78.92,15.07,2.08.15-.74.74-2.18,3.13-2.48h0c1.61,1.57,1,3.01.56,3.66,5.51,2.07,10.23,5.32,13.65,9.71.24-.33.48-.64.7-.94-3.2-3.96-7.68-7.15-12.46-9.13.52-1.55,0-2.87-.91-3.8,0-.63-.37-1.18-.76-1.39,0,0,0,0,0,0-.46-.06-1.15.16-1.61.64-1.38.2-2.74.92-3.49,2.39-3.56-.86-7.56-1.43-12.68-1.69-.12-2.35-1.49-3.81-3.17-4.64-.34-.83-1.06-1.29-1.66-1.43-.61.15-1.32.61-1.67,1.43-1.68.83-3.04,2.28-3.17,4.64-5.12.27-9.13.84-12.68,1.69-.74-1.47-2.1-2.19-3.48-2.39-.47-.48-1.15-.7-1.61-.64h0c-.39.22-.76.76-.76,1.4-.92.93-1.43,2.25-.91,3.8-4.82,1.99-9.1,5.05-12.3,9.04M357.49,28.7c.06.1.31.53.37.64,4.59-6.1,8.8-11.69,8.8-11.69,0,0-1.77,1.26-4.34,2.45.26,1.37-.61,3.1-.94,3.52-.14.17-1.66,2.15-3.88,5.07M359.34,29.79c-.26.34-.82,1.08-.82,1.08.7,1.27,1.46,2.59,3.45,3.63-.8-1.62-1.67-3.18-2.63-4.71M346.31,44.72c.35-.47,2.02-2.71,4.28-5.72-.16-.19-.33-.4-.44-.6-1.55,2.07-3.14,4.19-4.65,6.24-1.13,1.53-2.89,3.99-2.91,4.26-.02.45,2.88-3.03,3.72-4.19M317.56,124.94c.23.74.65,1.72.93,2.2,0,0,1.48-1.21,1.93-3.95-.28.23-.74.6-1.14.84-.67.39-1.29.7-1.72.91M298.77,124.94c2.32.9,8.75.99,11.75.61,3.83-.48,6.78-1.63,9.25-3.38-.64-.55-1.43-1.27-2.24-2.04-1.29,1.04-2.44,1.86-3.17,2.16-4.59,1.86-10.64,2.31-10.64,2.31,0,0,7.89-1.78,10.64-3.28.52-.28,1.41-.99,2.46-1.88-1.02-.98-2.01-1.96-2.77-2.71-.51.45-.91.75-1.45,1.15-1.01.73-2.51,1.26-3.66,1.76-5.61,2.25-9.28,4.59-10.15,5.3M307.82,78.6c.42-1.3.89-9.62-2.4-13.2.84,3.22,1.92,6.98,2.4,13.2M301.58,57.98c-.18,1.09-.15,2.45.11,3.48.18.71.52,1.37.78,1.99.11-2.12-.44-4.41-.9-5.47M303.26,60.65c0,2.36.47,4.09,1.28,6.96.09-3.04-.54-6.14-1.28-6.96M291.27,38.75c2.42,3.22,4.25,5.66,4.61,6.16.85,1.15,3.75,4.64,3.72,4.19-.02-.27-1.79-2.73-2.91-4.26-1.63-2.21-3.34-4.5-5.01-6.72-.16.23-.3.44-.42.63M289.13,27.36s0,0,0,0c-.25-.27-.88-.82-2.42.28-2.75,2.37-1.86,4.53-4.69,6.44,1.01.18,1.82.24,2.5.24.45,0,.85-.03,1.2-.07.52-.06.94-.14,1.32-.2h.01c.71,1.59,1.61,3.04,1.59,5.74,3.3-1.75,1.95-7.4,5.03-7.34-1.73-1.94-4.24-4.77-4.53-5.08M352.24,26.05c-1.78-1.76-4.61-3.7-8-5.19-8.86-3.89-20.1-3.9-23.31-3.9,0,0,0,0,0,0,0,0,0,0-.01,0-3.21,0-14.45.02-23.31,3.9-3.39,1.49-6.23,3.43-8.01,5.19,0,0,4.01,4.5,5.05,5.71.55.65.72,1.18.4,2.14,6.16-4.13,13.15-6.19,25.63-6.27h.56c12.25.11,19.46,2.18,25.56,6.27-.32-.96-.14-1.49.4-2.14,1.04-1.22,5.05-5.71,5.05-5.71M350.49,35.49c.4,1.41.84,2.99,2.03,3.94.16.13.35.25.54.35l.03.02c-.03-2.7.88-4.17,1.6-5.75h0s0-.01,0-.02c1,.15,2.32.52,5.01.04-2.55-1.72-2-3.65-3.89-5.75-.2-.23-.43-.46-.7-.68-.68-.48-1.18-.65-1.54-.66-.48-.01-.74.23-.88.38-.25.27-2.91,3.12-4.65,5.08,1.56-.03,1.98,1.4,2.44,3.06M348.32,39.4c.27-.35.54-.71.81-1.06-3.63-3.21-9.01-6.45-14.91-7.72-3.99-.86-7.17-.94-9.18-.92-1.65.02-2.7.66-2.7,1.69-1.02-.19-1.3-1.48-1.43-1.72-.1.54-.6,1.59-1.42,1.72,0-1.03-1.06-1.67-2.7-1.69-2.01-.02-5.19.05-9.18.92-6.01,1.3-11.2,4.26-14.82,7.51.26.35.53.71.8,1.06,3.25-3.06,7.59-5.49,12.21-6.84,3.83-1.12,8.54-1.52,10.71-1.42,1.93.09,2.2,1.18,1.97,1.78.86.08,2.15-.66,2.43-1.17.2.38,1.38,1.24,2.43,1.17-.23-.6.05-1.69,1.98-1.78,2.17-.1,6.88.3,10.71,1.42,4.51,1.32,9.04,4.06,12.29,7.05M334.03,56.66c.46.02.9-.06,1.3-.31.36-.22.44-.36.55-.52,2.79-4.04,7.97-10.53,11.84-15.65-7.93-7.83-19.28-8.36-22.24-8.15-.7.05-1.49.6-.61,1.75-.64.29-3.07.08-3.97-.77-.91.85-3.33,1.07-3.97.77.88-1.14.09-1.69-.61-1.75-2.98-.22-14.92.94-22.13,7.97,3.97,5.26,12.27,16.23,12.44,16.44.16.21.57.48,1.07.49.07,0,.13,0,.2,0,.43-.02.84-.31,1.28-.8.85-.94,1.28-1.46,2.13-2.32,1.63-1.67,3.17-2.94,3.43-3.18.69-.64.91-1.14.93-1.67-.04-.6-.51-.84-.8-1.2-.02.05-.1.15-.15.22-.26-.21-.57-1.13-.57-1.13l-.16.42s-.62-1.47-1.58-1.34c-1.33.18-2.19-.39-2.29-.42-.08-.02-.14.42-.11.94-.02,0-.04-.01-.05-.02-.91-.77-1.19-2.77.56-4.05,1.08-.79,1.28-.76,2.11-1.15.35-.17.62-.51.7-.6.56-.68,1.69-1.06,2.33-1.24.81-.22,2.73-.48,4.65-.38,1.08.06,2.1.31,2.82.6.57.23,2.22,1.45,3.12,2.65.6.79,1.63,3.01,2.21,4.42,1.21,2.96,1.07,2.64,1.89,4.6.94,2.24,1.51,3.49,2.41,4.75.31.43.64.6,1.25.64M309.74,78.17c0,1.17.82,2.8,1.94,3.44-.66-1.79-1.18-2.37-1.94-3.44M324.83,91.23c-.42.67-.77,1.06-1.3,1.53.18-.49.22-1.03.22-1.05-.25.51-.85,1.25-1.25,1.64-.96.96-1.14,1.9-1.14,1.9,0,0,.26-.35,1.42-1.03,1.22-.72,1.67-1.83,2.05-2.98M325.61,103.41c-.33-.45-1.23-1.64-2.01-2.33.52,1.24.76,2.03.84,2.34h0s.08-.06.13-.08c.13-.07.27-.1.41-.09.13,0,.28.04.45.1,0,0,.12.04.18.06M324.98,113.41c.7.69,1.48,1.47,2.1,2.09.37-.39.67-.74.91-1l-2.12-1.96s-.34.33-.89.87M321.16,109.53c.94.99,2.19,2.3,3.02,3.11.54-.53.87-.85.87-.85l-3.23-2.97c-.13.15-.37.39-.67.71M320.81,107.75c0,.5.02.9.02,1.08.04-.04.53-.56.53-.56,0,0-.41-.37-.55-.53M320.8,107.13s.55-.65.8-.92c.01-.01.03-.03.04-.05-.16-1.15-.43-2.59-.81-3.14-.07.54-.06,2.57-.04,4.11M322.15,101.67c.15.9.27,3,.3,3.67,0,0,0,0,0,0,.24-.25.5-.51.75-.76-.05-.32-.34-1.98-1.06-2.9M320.71,100.78s.21-.08.68-.37c.43-.26.78-.54.99-.93.23-.43.18-.8.15-1.05,0,0-.09.4-.64.9-.24.22-.56.53-.75.76-.28.36-.43.68-.43.68M319.94,94.81c0-1.5-1.64-1.67-2.02-3.16-.19,2.1,1.26,2.12,2.02,3.16M320.83,98.23s0-.01,0-.03v.03s.13-.31.61-.67c.31-.23,2.21-1.36,2.57-1.86.36-.5.51-1.18.51-1.18,0,0-.34.54-1.09.97-.64.37-2.12,1.29-2.39,1.74-.14.24-.19.42-.21.58-.02-.13-.05-.28-.13-.43-.46-.96-1.83-1.35-2.65-2.29-.53-.62-.55-.87-.55-.87-.02.64.1,1.12.36,1.47.24.32.92.91,1.83,1.5.92.6,1.11,1.05,1.11,1.05M320.15,100.15s-.17-1.16-1.03-1.54c.04.84,1.03,1.54,1.03,1.54M319.7,106.19c-.03-.91-.07-1.9-.13-2.34-.29.41-.48,1.01-.6,1.58.08.08.66.69.73.76M314.75,103.72c.25-.09.89-.38,1.24-.47.08-.02.22-.05.26-.05.2-.69.52-1.75.74-2.24-.2-.06-1.9,2.28-2.23,2.75M317.43,103.88s.49.48.59.57c.1-.69.44-2.97.3-3.2-.77,1.48-.88,2.49-.89,2.63M317.49,91.07s.01-.4-.24-.91c-.14-.27-.58-.61-.79-.86-.18-.22-.21-.35-.21-.35-.05.25.06.85.14,1.1.08.28.26.56.58.76.34.21.52.26.52.26M316.84,106.82c-.1.1-6.77,6.37-6.77,6.37.43.44.87.92,1.18,1.22.13.14.21.13.32.03.42-.38,7.16-6.54,7.72-7.05.06-.05.07-.11.02-.17-.31-.32-1-1.12-1.52-1.67-.61-.65-1.4-1.47-1.89-1.32-.55.16-.58.17-1.27.31-1.46.26-2.52-.07-3.1-.19-.05-.01-.1-.03-.15-.04-.02.16-.04.32-.06.47-.02.14-.05.28-.09.45.7.14,1.08.1,2.81.12.53,0,.86.18.4.69,0,0-4.42,4.41-4.67,4.66-.93.87-.98,1.08-.72,1.38.07.08.04.03.29.29l1.8-1.6,2.88-2.56s2.09-1.94,2.18-2.05c.1-.11.25-.1.3-.04.05.06.34.36.39.42.05.06.04.18-.07.28M327.25,105.4c1.64-.02,2.07.01,2.71-.11-.04-.19-.08-.36-.11-.52-.02-.12-.04-.26-.05-.39-.01,0-.02,0-.04.02-.57.13-1.64.45-3.1.19-.7-.14-.73-.15-1.27-.31-.49-.15-1.28.67-1.89,1.32-.52.56-1.21,1.34-1.52,1.67-.05.05-.05.12.01.17.56.51,7.31,6.67,7.73,7.06.11.1.18.11.32-.03.3-.31.75-.78,1.18-1.22,0,0-6.67-6.27-6.77-6.38-.1-.1-.12-.23-.07-.29.05-.06.34-.36.39-.41.05-.06.21-.07.3.04.09.11,2.18,2.06,2.18,2.06l2.87,2.56,1.8,1.61c.26-.27.23-.21.3-.3.27-.29.2-.49-.71-1.38-.26-.25-4.67-4.66-4.67-4.66-.45-.52-.12-.69.4-.69M325.88,87.26s1.05-1,1.43-4.3c.2.25.58.49.69.96.67-.81,2-5.25,2.14-6.75.44.19.05.09.55.35.36-.65,1.12-3.17,1.46-6.67.16.05.45.05.57.19.23-1.6.46-4.17.54-5.96.06-1.54.01-4.73-.65-6.55-.66-1.82-.96-2.8-2.02-4.47,0,0-.38.18-.57.44-.29-.88-1.1-3.01-1.5-3.79-1-1.96-1.48-3.22-2.52-3.87.48.03.65.14,1.25.1-.68-.64-.93-1.08-1.71-1.67.26-.17.69-.15,1.42-.03-1.03-.94-1.38-2.38-4.03-3.38.47-.08.84.08,1.47.06-.33-.52-1.14-1.38-2.46-1.77-2.71-.54-6.46-.62-8.21,1.45-.12.15-.6.24-1.02.4-.3.1-.42.2-.5.26-.3.22-.36.53.22,1.35-.77-.11-.96-.84-1.09-.76-.28.18-.53.41-.81.82-.25.38-.48,1.19-.42,1.53.09.08.73.36.85-.39.05-.26,1.24-.37,1.65-.37.6,0,1.15.14,1.89.11-.26.1-1.1.34-1.41.42-.33.1-.37.45-.05.48.34.04.5-.12.83-.19.15.1,0,.46.12.68,2.19-.5,2.35,1.85,4.68,1.38-1.1-.85-2.03-2.29-2.89-2.72,2.3.36,3.55,2.42,6.03,2.53q-.09-.24-.31-.66c.85,0,1.46.65,1.71.63-.32.34-1.04.62-1.99.75.17.31,1.1.38,1.41.43-.51.45-1.08.68-2.21.45-.36.34-.86,1.12-2.48,2.1q.02-.4.08-.77c-1.07.62-1.77,1.75-2.57,2.06.24-.4.43-1.09.61-1.44-2.8,2.54-5.48,4.98-6.49,6.81-1.12,2.05-1.48,4.17-1.34,7.65.11,1.87.9,7.16,1.05,8.2.22-.1.38-.18.57-.25.67,3.88,2.69,9.33,3.74,11.11.19-.43.3-.61.61-.83.17,1.04.72,2.22,1.57,2.97-.03-.7.28-1.11.35-1.35.24.75.1,3.09,1.44,4.38-.08-.64.16-1.18.34-2.05.23.74.28,1.69.64,2.44.42.88.94,1.77,1.43,2-.06-1.84.22-1.74.29-2.5.03.16.73.82,1.07,3.14,1.36-1.05,1.88-4.47,1.88-4.47,0,0,.39.35.68,1.29,1.19-1.24,1.55-2.87,1.9-4.11.12.87.16,1.72.05,2.14M303.84,72.42c1.01,1.44,2.96,6.01,2.91,9.19,1.21-3.13-.74-9.36-2.63-12.83-.01,1.02-.24,1.31-.5,1.74-.36-3.98-2.85-6.87-3.29-9.66-.08.49-.16.83-.28,1.22-.92-1.56-1.69-3.39-2.26-5.67-.16.18-.45.85-.45,1.65-1.24-3.44-.04-4.84.31-5.05.94-.55,2.07.33,2.94,1.3,1.32,1.46,2.69,4.37,7.09,4.44.72.02.99-.16.63-.23.04,0,.03,0-.01,0-3.65-.67-4.31-2.14-7.35-5.46-1.89-2.06-3.78-3.26-6.03-.62-4.36,5.13-5.75,9.45-6.53,13.02-.44,2.02-.74,6.32-.2,8.41.51-.18.55-.32.55-.32,0,0,.57,5.86,1.58,7.32.29-.62.71-2.17.71-3.55.56,1.73,1.06,2.66,1.82,3.65.4-1.46.41-2.82.2-4.42.89,2.09,1.55,2.98,2.03,3.32.37-.93.75-2.44.45-7.26.35,1.81.54,3.22.62,4.32.25.21.59.46.93.6.16-.49.64-1.19-.16-7.25,2.03,6.55.9,8.33.7,8.81-.68-.4-1.14-.86-1.42-1.22.03,1.95-.34,2.76-.65,3.46-.77-.41-1.22-.98-1.73-1.72.07,2.05-.46,3.29-.46,3.29,0,0-1.53-1.67-1.9-2.92.03.79-.51,3.13-.96,3.55-1.68-2.2-2.25-8.48-2.25-8.48,0,0-.11.08-.25.18.09,1.53.29,3.9.51,6.58,0,0,0,.02,0,.02.27,3.13.58,6.66.85,9.8.66,7.51,1.5,15.02,2.5,22.5,0,0,.14,1.24.35,1.91.24-.75.29-3.77.15-5.4-.03-.41.57-1.09.53-3.35-.01-.92-1.05-12.46-1.4-16.98-.05-.56-.11-1.78-.11-1.79.03.14.07.31.1.47.35,1.71.62,3.44.88,5.16.15,1.03.31,2.12.46,3.24.47,3.33.87,6.72.95,10.09.05,2.15-.66,2.76-.59,3.24.38,2.68.09,5.28-.49,6.77-.23-.07-.38-.29-.46-.41.36,2.05.84,3.69.84,3.69.79-1.72,1.25-3.58,1.12-8.15-.01-.36.66-1.39.78-3.75.03-.7-.09-2.92-.29-5.66-.35-4.9-.77-9.81-1.16-14.72-.02-.23-.06-.82-.07-.85.05.21.11.44.16.68,1.38,6.3,1.93,12.86,2.26,19.25.15,2.91-.93,5.06-.89,5.48.15,1.45.14,1.36.1,2.63-.05,1.51-.15,1.73-.15,1.73.49-1.12,2.08-4.88,1.54-16.63-.01-.28-.03-.57-.04-.87-.43-8.17-1.08-13.51-1.08-13.51.76,2.28,1.42,7.22,1.86,12.92.05-.08.1-.18.16-.29.82-2.18.97-4.37.82-6.67-.27-4.3-.79-7.82-.78-7.81,0,0,.1.32.11.35.16.48.53,1.75.96,3.96.31,1.53.52,3.06.64,4.61.01.22.03.44.03.65,1.63-2.44.93-7.31.13-12.37.72,1.62,2.02,6.17,1.67,9.59,2.45-2.3,1.12-6.86.19-12.1,1.39,3.12,2.41,6.93,2.07,9.44,1.99-2.59,1.25-6.01-.53-12.72,1.08,1.77,2.57,6.02,2.65,8.61,1.3-3.03-.21-8.09-1.49-12.17M306.42,96.05c.39-.63-.18-.8-1.32-.09-.67.42-3.03,1.96-4.22,3.6-.29.4-.19.61.3.1,1.19-1.19,2.98-2.85,2.95-2.06-.03.69.1,1.4.35,2.08.19-.04.37-.09.54-.14l1.55-.41c-.49-1.21-.6-2.36-.15-3.08M305.68,104.18c-.64.69-1.16,1.46-1.16,2.44.02.7.44,1.1,1.02,1.07.9-.1.44-1.05.95-.47.21.24.89-.54,1.08-.73-.39.06-.95.12-.86-.45.07-.43.38-.78.65-1.1.24-.3.98-1.69,1.46-1.52.23.16.09,1.48-.29,2.29-.81,1.73-.94,2.86-.38,3.19l.04.03v.05c-.09.6-.09,1.29.66,1.7l.07-.07c-.18-.6-.01-.96.04-1.25,0-.07.05-.27-.45-.4l-.04-.02h.03c.19,0,.63.03.81,0,.33-.05.71-.11.78-.76.02-.22.05-.44.07-.65.1-.99.28-1.88.42-2.56.17-.78.37-2.68.37-2.68,0,0,.19-.06.38-.04.24.02.55.13.73.58.05.13.08.33.02.65.19-.1.48-.3.51-.68v-.04s.03-.02.03-.02c.29-.2.43-.43.46-.67.1-.68-.68-1.38-.76-1.44-.47-.37-.32-1.08-.11-1.68l.27-.72c.24.29.55.58.93.79,1.1.77,2.2.59,2.2.59,0,0-.25-.61-.33-1.39-.11-1-.07-1.87-.07-1.87l.83.9s.49-1.65.17-4.78c-.37-3.6-1.13-5.02-1.29-5.53-.26-.81-.72-1.62-.72-1.62,0,0-.07.43-.66.94-.7-.87-1.93-2.59-2.24-3.75-.18.34-.46.64-.69.85l-.14.12-.02-.17c-.14-.87-.63-1.52-1.11-2.15-.34-.44-.66-.87-.82-1.33-.29.94-.35,1.98-.4,2.91-.06.92-.11,1.74-.35,2.28.17-.1.32-.19.43-.26.21-.13.31-.19.4-.19h.07s.03.04.03.04c.04.04.04.1.03.16-.28,1.22-.52,2.65-.59,3.51-.1,1.26,0,2.36.09,2.88.08-.09.94-.54.94-.54,0,0-.55,1.81-.26,4.82.04.47,0,1.37-.06,1.65.57-.08,1.05-.36,1.32-.52-.22.8-.41,1.54-.61,1.81-.74,1.01-2.32,1.27-3.48,1.58-1.43.38-2.86.68-4.19,1.35-.44.22-.86.67-.77.99.11.35.61.43.8.43l.1.22c.32.49,1.36.19,1.62.07.3-.14.51-.31.57-.4-.05.08-.4-.04-.61-.13-.08-.03-.15-.13-.15-.17-.07-.61,2.49-.69,2.86-.68.4,0,.53.08.68.35.09.16.22.53-1.29,2.2M306.9,113.04c-.49,1.56-1.49,3.87-3.05,6.11-.77,1.1-1.91,2.24-1.91,2.24,0,0-.06.2-.13.53l-.24.13,1.28-.71c.21-.1.42-.22.63-.31.84-.46,1.77-.89,2.7-1.28.91-1.65,2-3.6,2.35-4.12-.11.4-.32,1.51-1.3,3.68l.7-.28c1.45-.57,2.71-1.03,3.32-1.32,1.01-.45,1.46-.84,1.87-1.13.08-.06.22-.19.4-.37.03.02-1.03-1.04-1.03-1.04l-.35.29s-.6.58-1.17.07c-.47-.42-2.61-2.79-2.79-3.01-.21-.25-.45-.67.04-1.42,0-.01.01-.02.03-.04-.67-.61-.76-1.44-.75-1.84-.3-.33-.42-.82-.35-1.45-.21.13-.43.19-.64.16-.22.24-.52.39-.89.42-.07,0-.1,0-.13,0-.36,0-.7-.09-.95-.3-.3-.25-.3-.23-.52-.67-.01-.03-.03-.06-.04-.09-1.23,1.29-2.37,2.94-4.02,5.57-2.05,3.26-2.53,4.44-2.96,5.7,1.35-.09,2.1-.29,3.85-2.13.82-.85,2.95-4.01,4.29-5.69-1.14,2.78-2.37,4.89-3.39,6.3-1.2,1.65-2.41,2.64-2.41,2.64,0,0-.51.31-.83,1.97.91-.02,3.27-1.32,5.49-4.3.69-.94,1.15-1.68,2.9-4.33M321.5,123.59c.02,1.63,1.34,3.29,1.68,3.57,0,0,.51-.62.74-2.23-1.12-.49-1.9-.98-2.42-1.34M330.77,125.5c3,.37,9.44.29,11.75-.61-.87-.71-4.54-3.05-10.15-5.31-1.15-.5-2.65-1.04-3.66-1.76-.63-.45-1.06-.78-1.67-1.35-1.85-1.7-6.71-6.77-7.57-7.71l-3.23,2.97s8.55,8.35,10.71,9.52c2.75,1.49,10.63,3.28,10.63,3.28,0,0-6.05-.46-10.64-2.32-2.77-1.11-11.52-9.74-11.52-9.74l-2.12,1.96c1.08,1.19,3.43,3.83,7.24,6.93,2.66,2.17,5.87,3.58,10.23,4.13M336.84,110.88c1.34,1.68,3.47,4.84,4.29,5.69,1.76,1.83,2.51,2.04,3.85,2.13-.43-1.26-.9-2.47-2.94-5.73-1.08-1.73-2.89-4.49-4.74-6.57,0,.31-.03.63-.13.94-.03.07-.07.13-.1.2-.13.22-.28.4-.49.54-.3.21-.67.29-1.04.27-.38-.04-.68-.18-.9-.42-.22.02-.43-.04-.65-.16.07.63-.04,1.12-.34,1.45,0,.39-.08,1.19-.7,1.8.06.08.1.13.1.13.44.79.25,1.18.04,1.42-.19.22-2.32,2.58-2.79,3.01-.57.51-1.17-.07-1.17-.07l-.35-.29s-.54.55-.98.99c.04.04.07.07.11.11.69.63,1.53,1.1,2.39,1.47.77.33,3.03,1.17,4.55,1.79-.36-1.12-.79-2.4-1.22-3.66.39.54,1.49,2.48,2.43,4.19-.06-.03.12.06.06.03,1.22.55,2.84,1.36,4.06,2.11-.1-.43-.18-.71-.18-.71,0,0-1.13-1.16-1.9-2.26-1.56-2.24-2.56-4.55-3.05-6.11,1.75,2.66,2.21,3.4,2.91,4.33,2.22,2.98,4.58,4.28,5.49,4.3-.32-1.66-.91-2.03-.91-2.03,0,0-1.09-.92-2.27-2.51.28.38.55.75-.06-.08-.45-.62-.28-.38-.04-.05-1.02-1.41-2.23-3.5-3.35-6.25M334.72,99.17l1.41.37c.21.07.44.12.68.17.24-.68.36-1.37.33-2.06-.03-.78,1.76.87,2.95,2.06.5.51.6.28.31-.11-1.19-1.64-3.55-3.18-4.22-3.59-1.14-.71-1.71-.54-1.32.09.44.72.34,1.86-.15,3.06M332.55,84.83c0-.06,0-.11.04-.15,0,0,.03-.03.04-.03.03,0,.05-.01.05-.01.09,0,.2.07.41.19.11.07.26.16.43.26-.25-.55-.29-1.36-.35-2.28-.06-.93-.09-1.9-.37-2.83,0,.01-.06-.1-.07-.13-.16.46-.48.89-.82,1.33-.48.63-.97,1.28-1.11,2.15l-.03.17-.13-.12c.25.24-.68-.84-.7-.85-.36,1.37-2.71,4.32-3.25,4.93h0c-.07.11-.97,1.44-1.32,4.75-.33,3.12,0,5.05,0,5.05l.83-.9s.03.87-.07,1.87c-.08.78-.33,1.39-.33,1.39,0,0,1.64.28,2.91-1.26l.23.6c.21.6.36,1.31-.11,1.68-.07.06-.86.75-.76,1.44.04.24.17.46.46.67l.03.02v.04c.03.38.32.58.51.68-.07-.32-.03-.52.02-.65.17-.44.49-.56.73-.58.18-.01.38.04.38.04,0,0,.2,1.91.36,2.68.15.69.33,1.58.43,2.56.02.22.04.43.07.65.08.65.45.71.79.76.18.03.62,0,.81-.02h.03s-.04.03-.04.03c-.49.13-.46.33-.44.4.05.29.23.64.04,1.25l.07.07c.74-.41.74-1.09.66-1.7v-.05s.04-.03.04-.03c.56-.33.43-1.47-.38-3.19-.38-.81-.54-2.16-.29-2.29.01,0,.03-.01.05-.02.13-.02.29,0,.67.56.26.39.53.72.87,1.14.32.4.54.77.53,1.1,0,.12-.03.21-.1.26-.05.04-.13.06-.24.07-.17.01-.37-.01-.53-.03.18.19.87.97,1.07.73.52-.59.05.37.95.47.58.03,1-.36,1.03-1.07,0-.25-.04-.41-.07-.63-.12-.67-.64-1.33-.89-1.6l-.2-.21c-1.51-1.67-1.39-2.04-1.29-2.2.15-.26.28-.34.68-.35.59-.01,1.24.07,1.27.08.61.11,1.62.27,1.58.6,0,.05-.07.15-.16.17-.21.09-.56.21-.61.13.06.09.27.26.57.4.26.12,1.29.42,1.62-.07l.1-.22c.18,0,.69-.08.8-.43.1-.32-.32-.78-.76-.99-.36-.18-1.4-.6-2.25-.85-.34-.1-.77-.18-1.09-.27l-1.82-.48s-1-.32-1.35-.48c-.18-.08-.32-.14-.39-.19-.31-.17-.55-.35-.77-.66-.2-.28-.4-1.03-.62-1.83.22.12.77.49,1.45.59-.05-.27-.11-1.17-.06-1.64.28-3.01.34-4.74.34-4.74,0,0,.52.53.6.62.1-.52-.08-1.78-.18-3.04v-.03c-.07-.86-.32-2.27-.59-3.49M340.1,61.32c.26-1.03.28-2.39.11-3.48-.46,1.07-1.01,3.36-.9,5.48.27-.62.61-1.29.79-2M337.26,67.47c.81-2.87,1.28-4.6,1.28-6.96-.74.82-1.37,3.92-1.28,6.96M334.59,64.88c1.05-3.13.17-4.71-.44-5.03-.02,1.44.37,2.12.44,5.03M333.98,78.46c.47-6.22,1.55-9.98,2.4-13.19-3.29,3.58-2.82,11.9-2.4,13.19M348.75,76.41c-.2,1.59-.2,2.95.2,4.42.76-.99,1.26-1.92,1.82-3.65,0,1.39.41,2.93.71,3.55,1.01-1.46,1.58-7.32,1.58-7.32,0,0,.03.14.55.32.54-2.1.24-6.4-.2-8.42-.78-3.56-2.17-7.88-6.53-13.02-2.24-2.64-4.13-1.44-6.02.62-3.05,3.32-3.71,4.79-7.36,5.46-.04,0-.05,0-.01,0-.36.07-.09.24.62.23,4.4-.07,5.78-2.99,7.1-4.45.87-.97,2-1.84,2.94-1.3.35.21,1.55,1.6.31,5.05,0-.79-.3-1.47-.46-1.65-.57,2.28-1.34,4.12-2.26,5.67-.12-.38-.2-.73-.28-1.22-.43,2.79-2.93,5.68-3.29,9.66-.26-.43-.49-.72-.5-1.74-1.88,3.47-3.83,9.7-2.62,12.83-.05-3.18,1.9-7.74,2.91-9.19-1.29,4.08-2.79,9.13-1.5,12.17.09-2.6,1.58-6.85,2.66-8.61-1.78,6.71-2.52,10.13-.53,12.72-.34-2.51.68-6.32,2.07-9.44-.92,5.24-2.25,9.81.2,12.1-.36-3.42.95-7.98,1.66-9.59-.8,5.05-1.5,9.93.13,12.36,0-1.75.32-3.55.67-5.26.43-2.21,1.08-4.33,1.08-4.33,0,0-.51,3.53-.79,7.83-.04.72-.07,1.45-.05,2.17.02.88.08,1.77.26,2.64.15.74.36,1.51.76,2.16.45-5.71,1.11-10.64,1.87-12.92,0,0-.65,5.34-1.08,13.51-.01.3-.03.58-.04.87-.53,11.74,1.05,15.51,1.55,16.63,0,0-.1-.22-.15-1.73-.04-1.27-.05-1.17.1-2.62.04-.42-1.05-2.57-.89-5.48.09-1.75.21-3.49.36-5.18.13-1.54.28-3.05.44-4.49.18-1.32.3-2.58.49-3.91.26-1.9.63-3.78.98-5.67.27-1.49.12-.18.1.17-.14,1.69-.45,5.39-.75,9.2-.2,2.84-.83,8.47-.7,11.18.11,2.36.79,3.39.78,3.75-.13,4.58.32,6.44,1.12,8.15,0,0,.47-1.63.84-3.68-.08.12-.23.34-.46.41-.58-1.49-.87-4.1-.49-6.78.07-.47-.64-1.08-.59-3.24.08-3.38.53-6.74.95-10.08.15-1.12.3-2.21.46-3.24.1-.66.2-1.33.31-1.99.15-1.06.34-2.12.57-3.17.03-.17.07-.33.1-.48,0,.01-.03.77-.11,1.79-.37,4.52-1.39,16.07-1.41,16.98-.04,2.26.57,2.94.54,3.35-.15,1.63-.09,4.64.15,5.39.21-.67.34-1.9.34-1.9,0,0,.65-4.68,1.39-11.35.11-1.03.22-2.05.33-3.08.1-.97.2-1.95.3-2.97.11-1.19.23-2.37.34-3.56.05-.51.09-1.02.14-1.54.27-3.14.59-6.68.86-9.8,0,0,.42-5.08.51-6.61-.14-.1-.25-.18-.25-.18,0,0-.57,6.27-2.25,8.48-.45-.41-.99-2.76-.95-3.54-.37,1.24-1.9,2.92-1.9,2.92,0,0-.52-1.24-.46-3.29-.51.74-.95,1.31-1.73,1.71-.31-.7-.68-1.51-.65-3.45-.28.35-.74.81-1.42,1.22-.2-.48-1.33-2.25.7-8.81-.81,6.06-.33,6.76-.17,7.25.34-.15.68-.4.93-.6.08-1.1.27-2.51.62-4.32-.3,4.82.07,6.33.45,7.26.48-.34,1.15-1.23,2.03-3.32M362.06,34.65c-3.19.68-5.22.63-6.41.6-.82,1.74-1.47,3.36-1.41,6.33-1.3-.39-1.98-.78-2.67-1.5-.91,1.21-1.42,1.88-2.38,3.15,8.39,14.98,8.39,28.81,8.54,32.7,6.53-3.72,10.66-7.22,11.49-7.92-.78-13.85-2.92-24.32-7.16-33.38M364.43,118.61c-3.19,6.27-7.16,10.18-12.59,13.63-7.94,5.04-16.2,3.83-18.9,2.26,0,0,.21.52.29.7.08.19.2.49.26.65,1.06,2.86.34,5.83-3.54,6.28-1.02.12-2.17.16-3.51.78-.94.45-1.99,1.16-3.14,2.35-.48.5-1.49,1.79-1.98,2.8h0s0,0,0,0c-.49-1.01-1.5-2.3-1.99-2.8-1.15-1.19-2.2-1.9-3.14-2.35-1.34-.63-2.49-.67-3.51-.78-3.88-.44-4.59-3.42-3.53-6.29.06-.16.17-.45.25-.63l.29-.71c-1.97,1.14-6.85,2.02-12.52.48-.14-.03-.42-.11-.56-.15-4.57-1.2-8.61-3.47-12.03-6.7-4.13-3.88-6.39-8.07-7.24-9.65-7.55-15.61-6.49-38.76-6.51-41.24-.26-26.74,5.67-41.73,10.75-48.98-1.53-2.02-2.46-3.24-2.53-3.31-.51-.51-1.39-1.32-3.19-1.57-.5-3.51-1.81-7.66-1.81-7.66,0,0,3.51,2.52,6.77,3.93-.25,1.77.21,2.84.65,3.48.06.09.8,1.07,2.01,2.68,2.25-2.81,4.64-4.85,8.41-7.03.91-.51,1.88-1.01,2.92-1.49-.07-1.42.42-2.77,1.37-3.73.04-.82.73-1.85,1.57-2.17h0c.87-.24,2.16.17,2.8.77,1.42.2,2.78.94,3.78,2.06,3.1-.66,6.62-1.15,10.66-1.4.48-1.96,1.75-3.39,3.32-4.16.41-.85,1.59-1.71,2.6-1.76h.01c1.01.05,2.2.91,2.6,1.76,1.57.77,2.84,2.2,3.32,4.16,4.04.25,7.56.74,10.66,1.4,1-1.12,2.36-1.86,3.78-2.06.64-.6,1.94-1.01,2.8-.78h0c.83.31,1.53,1.35,1.57,2.17.94.96,1.44,2.3,1.37,3.73,1.04.47,2.01.97,2.92,1.49,3.77,2.18,6.39,4.55,8.58,7.13,1.35-1.78,2.16-2.86,2.22-2.96.45-.64.9-1.72.65-3.48,3.27-1.42,6.77-3.94,6.77-3.94,0,0-1.31,4.16-1.8,7.67-1.81.25-2.68,1.05-3.19,1.57-.07.07-1.14,1.47-2.86,3.75,5.06,7.3,10.89,22.17,10.64,48.73.03,2.13,1.04,25.74-6.5,41.35M304.82,27.55c.48.21.84.38,1.36.6.37-.44.53-.65.94-1.12-.52-.23-.87-.39-1.41-.6-.32.35-.67.82-.89,1.12M330.85,22.61s-.41.23-.62.66c.19.29.56.41,1.11.49.07.01.21.02.3.03.26-.6-.29-1.35-.8-1.18M342.37,25.72c-.23.78-.81,1.26-1.17,1.74-1.97-.76-6.34-1.88-8.74-2.12-.65.72-1.62,1.67-2.64,1.91-1.49-.17-2.45-.57-3.49-1.01.58.04.76.03,1.16.03,1.47-.05,2.78-.51,3.73-1.09-2.08-.32-2.58-.89-1.57-2.22.46-.6,1.22-1.69,2.33-1.41.86.22,1.08,1.46.98,2.39,2.44.3,5.56,1.13,7.93,1.94.16-.68-.28-1.01-.56-1.51.36-.38.89-.82,1.31-1.1.61.34.95,1.69.72,2.45M332.8,26.83c.36.35.62.63,1,1,.53-.29.77-.43,1.36-.73-.39-.38-.63-.65-1.04-1.03-.45.22-.97.54-1.31.75M343.51,26.32c-.46,1.08-.87,2.17-1.4,3.14.32.13.75-.14,1.06-.33,1.41-.87,2.44-3.26,2.99-4.68.01-.05-.83.17-1.27.36-.84.38-.99.6-1.38,1.5M344.17,24.2c1.15-.1,2.2.18,2.69-.35-.71-.21-1.44-.4-1.69-.75.31-.25.74.09.97.28.16-.15.24-.22.42-.39-.74-.61-1.9-.25-2.16.38.21.11.53.23.65.37-.24.08-.7.32-.89.46M301.48,28.5c-.33-.11-.63-.2-1.03-.31-.27.38-.55.89-.73,1.21.51.16.88.28,1.43.45.22-.34.35-.55.53-.83.33.1.63.2,1.01.32.3-.47.43-.7.78-1.21-.55-.17-.92-.3-1.48-.45-.18.25-.36.55-.51.83M325.58,22.25c-.72-1.18-3.4-.12-5.1.59.99-.01,1.83-.04,2.88-.02.42,0,1.53.01,2.28.04.07-.22.09-.37-.06-.61M326.77,24.43c-5.78-.32-17.07.28-22.63,1.81,0,0-.58-1.44-1.08-1.96-1.48-1.58-2.08.13-2.09.33,1.86.1,2.18,1.06,2.18,1.06-.44.81-.77,1.07-1.8,1.78-.33.23-1.52.97-3.16,1.11-3.5.17-2.55-3.47-.42-4.96-.28.33-1.52,2.24-.75,3.21.88,1.09,4.1.2,4.88-.78-.43-.41-1.22-.52-2.36-.42.05-.57.31-2.06,1.99-3.48.61.14,2.31,1.06,2.91,2.52,5.1-1.37,14.46-1.76,14.9-1.78-.11-.88-.42-4.23-.43-4.43-.04-.55.32-.8.68-1.02.39.68.75.99,1.61,1.31-.33.4-.65.57-1.04.88.05.67.11,1.89.14,2.38.83-.36,2-.85,3.4-1.18.51-.12,1.14-.19,1.54-.14.5.06,1.08.32,1.36.57.24.22.55.59.56,1.07,0,.82-.16,1.54-.38,2.11M316.99,41.66c-.09-.06-.75-.05-.82.09-.07.13.4.35.56.4.1.03.23-.02.3-.15.07-.14.06-.28-.03-.33M317.37,41.63s.16.29.09.77c-.07.49-.28.94-1.01,1.11-.76.18-1.55-.3-1.58-1.1-.01-.21.05-.48.14-.66-.26.03-.27.21-.52.53-.15.19-.4.17-.74.4,0-.47.51-1.2,1.09-1.46.85-.38,3.8-.51,5.9.58-.74-.14-1.38-.09-2.07-.13-.85-.05-1.3-.04-1.3-.04M324.88,18.63c-.44-.33-.74-.56-1.2-.88-.41.27-.87.66-1.18.9.41.31.72.55,1.16.87.48-.35.69-.52,1.22-.89M312.62,42.66c-.13.08-.24.48.22.49.38.01.46-.42.46-.42,0,0-.48-.19-.67-.08M325.29,46.16c-.06-.26-.72-1.19-2.13-1.49.38.36.62,1.01.76,1.25-.28.15-1.02.22-1.27.26.51.36,1.46.45,2.64-.02M322.39,43.7c-.83-.97-1.93-1.33-2.48-1.41.66.8,1.34,1.49,2.48,1.41M321.66,42.3c.44.44,1.84,1.04,2.62,1.76-.11-1.2-1.16-1.85-2.62-1.76M321.11,59.5c-1.61,2.4,0,4.91,0,4.9,0-.02,1.11-3.35,0-4.9M323.79,69.05s1.82-1.69,1.98-5.16c-1.02,1.72-2.14,2.68-2.14,2.67,0,0-.97-.66-1.77-1.63,0,2.21,1.95,4.13,1.93,4.12M321.64,54.18c-1.43,1.55-.56,2.85-.56,2.85,0-.03,1.75-1.89.56-2.85M323.68,48.36c.47.47,1.96.82,2.8,1.6-.11-1.29-1.42-2.08-2.8-1.6M325.91,52.18c-.01-.9-.28-2.47-2.32-2.76-.13,1.05,1.66,1.7,2.32,2.76M325.1,55.05c-.95,1.03-.06,3.06.48,4.89.5-.89,1.1-3.92-.48-4.89M330.13,59.71c-.54,2.5-1.63,3.45-1.63,3.44,0,0-.86-.7-1.6-1.67-.04,2.02,1.68,3.98,1.66,3.97-.01-.01,2.12-1.7,1.57-5.75M327.46,51.07c-.21,1.13,1.62,2.84,1.61,2.85,0,0,.25-2.17-1.61-2.85M330.64,56.33c-.17,1.32,1.37,4.34,1.43,4.58.04-.22.88-2.74-1.43-4.58M318.65,71.91c.41-.88,1.54-2.56.95-5.36-.21,2.1-1.55,3.04-1.55,3.04,0,0-.76-.42-1.35-1.69.19,2.56,1.15,3.31,1.95,4.01M317.28,56.04c-2.35,1.77-1.23,3.42-.82,4.33.49-1.72.68-2.19.82-4.33M316.1,61.43c-1.58,1.98.86,4.44.85,4.47,0-.02.2-3.74-.85-4.47M310.22,69.21c-.32-2-.18-3.33-1.17-5.09-.31,2.1.95,4.78,1.17,5.09M312.25,58.89c.65-2.35,1.98-3.69,2.43-5.06-2.36,1.67-2.84,4.24-2.43,5.06M313.28,64.97c-.03.99-.02,1.91-.26,3.01-.66-.17-.98-.61-1.46-1.03.4,1.33,2.05,2.87,2.3,3.25.24-1.81.31-4.01-.58-5.23M311.61,69.38c-.55,2.35,1.8,4.6,1.81,4.64,0,.03,0-2.79-1.81-4.64M312.32,75.67c.81,1.36,1.43,1.98,2.07,2.62-1.01-1.53-1.81-4.34-2.8-5.1-.09.42.27,1.71.73,2.48M309.42,61.95c-.18-1.16,1.25-2.22.76-4.08-1.43,1.61-1.15,3.13-.76,4.08M317.85,77.87c-.3-.08-1.71-1.4-2.14-2.22.22,1.32,2.03,3.92,2.9,4.45.28-.47,1.34-2.57.41-5.92-.39,2.02-.8,3.04-1.17,3.69M324.08,71.94c-.39,1.4-1.02,2.33-2.06,3.38-.44-.41-.88-.89-1.48-2.1-.24,2.33,1.1,3.69,1.86,4.2.47-.39,2.03-2.6,1.68-5.49M327.19,78.12c1.43-1.76,2.18-3.8,1.56-5.87-1.28,1.99-1.31,4.01-1.56,5.87M323.71,81.21c.42-.97,1.49-2.77,1.26-4.87-.92.79-1.35,3.62-1.26,4.87M331.22,69.84c.65-1.02,1.54-2.49.8-3.45-.35.95-.51,2.05-.8,3.45M326.48,73.16s2.41-2.32,2.33-5.22c-.68,1.94-2.32,2.77-2.33,2.77,0,0-.91-.57-1.32-1.83-.32,2.94,1.35,4.3,1.32,4.28M330.93,66.61s1.54-2.72.66-4.19c-1.01.22-.64,4.21-.66,4.19M330.85,71.17c-.93,1.25-1.19,4.08-1.48,5.03.33-.3,2.03-4.33,1.48-5.03M320.12,84.88c.51-1.54.38-3.41-.27-4.22-.44,1.56-.41,3.01.27,4.22M321.63,88.89c.52-1.34.48-3.02-.09-3.75-.45,1.44-.47,2.72.09,3.75M323.59,87.6c.43-1.04,1.36-2.06,1.32-5.41-1,1-1.42,4.14-1.32,5.41M317.43,85.13c-.23-.76-.64-3.3-1.61-4.4-.39,1.85.82,3.62,1.61,4.4M329.5,87.35s-.01-.74-.26-1.01c-.2.92-1.42,2.86-1.14,5.11.55-2.01,2.1-2.42,2.51-4.29.34.22.64.32.99.36-.19-.74-.74-1.5-.92-3.04-.17.52-.37,2.03-1.18,2.87M313.19,91.31c.28-2.25-.94-4.19-1.14-5.11-.24.27-.26,1.01-.26,1.01-.81-.85-1.01-2.36-1.18-2.87-.18,1.54-.73,2.3-.92,3.04.34-.03.65-.13.98-.35.4,1.86,1.95,2.28,2.51,4.29M300.95,70.31s-.77-.2-1.17-.73c.37,1.55,1.8,2.26,1.8,2.26,0,0,1.2-2.87-1.53-6.98,1.49,4.33.91,5.44.91,5.44M299.33,74.62s-.67-.28-1.06-.84c.22,1.15.64,1.65,1.68,2.38.54-1.73.87-3.1-1.57-8.17,1.67,4.97.95,6.62.95,6.62M289.36,72.21s-.69-1.08-.83-3.98c-.61,3.09.57,4.92.57,4.92,0,0,.8-.53.77-1.42-.09.21-.51.48-.51.48M290.86,70.73s-.73-1.13-1.02-4.42c-.56,3.53.87,5.56.87,5.56,0,0,.88-.63.82-1.64-.09.24-.66.51-.66.51M297.46,61.97c-.66-.74-1.71-1.85-2.77-5.81.12,3.38,1.82,6.52,3.06,7.59.6-.85.71-3.36-.14-5.2,0,0,.18,2.06-.15,3.42M295.71,64.75c-.59-.79-1.74-2.5-2.4-6.54-.22,3.37,1.41,7.01,2.54,8.17.68-.8.88-2.37.21-4.27,0,0,.11,1.3-.35,2.64M294.05,66.86c-.55-.83-1.32-1.95-2.01-6.82-.17,4.44,1.01,7.08,2.07,8.31.73-.75.88-2.11.69-2.99,0,0-.36,1.2-.76,1.5M292.45,68.96c-.46-.76-.82-1.66-1.27-6.01-.31,3.94.34,6.36,1.24,7.49.68-.64.87-1.85.73-2.64,0,0-.32.9-.71,1.16M351.93,71.58c-.03.89.77,1.42.77,1.42,0,0,1.18-1.83.57-4.92-.15,2.9-.83,3.98-.83,3.98,0,0-.42-.27-.51-.48M350.27,70.08c-.06,1.01.82,1.64.82,1.64,0,0,1.42-2.03.87-5.56-.29,3.29-1.02,4.42-1.02,4.42,0,0-.57-.27-.66-.5M344.33,61.83c-.33-1.37-.15-3.42-.15-3.42-.84,1.84-.73,4.35-.13,5.2,1.24-1.06,2.94-4.21,3.06-7.59-1.06,3.97-2.1,5.08-2.77,5.82M346.08,64.61c-.46-1.34-.35-2.64-.35-2.64-.66,1.9-.47,3.48.21,4.28,1.13-1.16,2.75-4.8,2.54-8.17-.67,4.04-1.82,5.74-2.4,6.54M349.75,59.89c-.69,4.88-1.47,5.99-2.01,6.83-.39-.31-.75-1.5-.75-1.5-.19.88-.03,2.25.69,2.99,1.06-1.24,2.23-3.88,2.07-8.32M350.61,62.8c-.44,4.36-.8,5.26-1.26,6.01-.38-.26-.71-1.16-.71-1.16-.14.79.05,2,.73,2.64.91-1.14,1.55-3.55,1.24-7.5M340.85,70.16s-.58-1.12.91-5.44c-2.73,4.11-1.53,6.98-1.53,6.98,0,0,1.43-.71,1.8-2.26-.41.53-1.18.72-1.18.72M343.52,73.63c-.23,1.16-.64,1.65-1.68,2.39-.54-1.73-.87-3.1,1.57-8.17-1.67,4.97-.94,6.62-.94,6.62,0,0,.67-.28,1.06-.84" style="fill: #fff;"/>
  <g>
    <path d="M112.12,97.19c.03-1.22-.06-2.44-.62-3.12-.57-.68-1.85-.92-2.41-.92-2.26,0-3.16,1.37-3.24,1.66-.09.24-.62.78-.62,4.46v5.74c0,5.26,1.73,5.89,3.84,5.89.83,0,3.36-.3,3.39-4.49h2.82c.12,6.78-4.67,6.78-6.07,6.78-2.68,0-6.78-.18-6.78-8.51v-6.07c0-6.07,2.68-7.79,6.9-7.79s5.89,2.2,5.62,6.37h-2.83Z" style="fill: #fff;"/>
    <path d="M120.57,106.36v.62c0,2.92,1.85,3.84,3.6,3.84,2.17,0,3.84-.92,3.84-3.48,0-4.76-9.64-4.22-9.64-10.68,0-3.81,2.71-5.83,6.31-5.83,3.93,0,6.13,1.9,5.95,6.28h-2.86c.03-2.35-.71-3.9-3.3-3.9-1.64,0-3.3.83-3.3,3.15,0,4.73,9.64,4.04,9.64,10.86,0,4.52-3.13,5.98-6.67,5.98-6.33.06-6.33-4.79-6.28-6.84h2.71Z" style="fill: #fff;"/>
    <path d="M149.57,97.19c.03-1.22-.06-2.44-.62-3.12-.56-.68-1.84-.92-2.41-.92-2.26,0-3.15,1.37-3.24,1.66-.09.24-.63.78-.63,4.46v5.74c0,5.26,1.73,5.89,3.84,5.89.83,0,3.36-.3,3.39-4.49h2.83c.12,6.78-4.67,6.78-6.07,6.78-2.68,0-6.78-.18-6.78-8.51v-6.07c0-6.07,2.68-7.79,6.9-7.79s5.89,2.2,5.62,6.37h-2.83Z" style="fill: #fff;"/>
    <path d="M205.94,100.49h4.1c1.96,0,2.91-1.69,2.91-3.57,0-1.55-.77-3.28-2.88-3.28h-4.14v6.84ZM205.94,102.88v9.87h-2.74v-21.48h7.41c3.8,0,5.14,2.68,5.14,5.35,0,2.53-1.4,4.46-3.93,4.91v.06c2.47.38,3.36,1.22,3.51,5.53.03.92.33,4.28.74,5.62h-2.86c-.77-1.49-.59-4.28-.83-7.14-.21-2.62-2.32-2.73-3.24-2.73h-3.21Z" style="fill: #fff;"/>
    <path d="M67.33,106.36v.62c0,2.92,1.84,3.84,3.6,3.84,2.17,0,3.84-.92,3.84-3.48,0-4.76-9.63-4.22-9.63-10.68,0-3.81,2.71-5.83,6.3-5.83,3.93,0,6.13,1.9,5.95,6.28h-2.86c.03-2.35-.71-3.9-3.3-3.9-1.64,0-3.3.83-3.3,3.15,0,4.73,9.64,4.04,9.64,10.86,0,4.52-3.12,5.98-6.66,5.98-6.34.06-6.34-4.79-6.27-6.84h2.71Z" style="fill: #fff;"/>
    <path d="M2.72,106.36v.62c0,2.92,1.84,3.84,3.6,3.84,2.17,0,3.84-.92,3.84-3.48,0-4.76-9.64-4.22-9.64-10.68,0-3.81,2.7-5.83,6.3-5.83,3.93,0,6.13,1.9,5.95,6.28h-2.86c.03-2.35-.71-3.9-3.3-3.9-1.64,0-3.3.83-3.3,3.15,0,4.73,9.64,4.04,9.64,10.86,0,4.52-3.13,5.98-6.67,5.98C-.05,113.26-.05,108.41.01,106.36h2.71Z" style="fill: #fff;"/>
    <path d="M143.46,50.11c.47,0,.86-.17,1.18-.5.32-.33.48-.74.48-1.21s-.16-.87-.48-1.21c-.32-.34-.71-.51-1.18-.51s-.87.17-1.21.51c-.33.33-.5.74-.5,1.21s.17.88.5,1.21c.34.34.74.5,1.21.5" style="fill: #fff;"/>
    <path d="M180.96,62.44c0-3.22-.75-5.6-2.24-7.15-1.49-1.54-3.58-2.31-6.27-2.31-.3,0-.59,0-.86.03-.27.02-.54.04-.8.07.51-.81,1.08-1.57,1.74-2.29.65-.72,1.33-1.38,2.02-1.97.69-.58,1.37-1.11,2.06-1.58.69-.47,1.3-.86,1.84-1.16v2.31h2.62v-6.6c-1.48.67-2.96,1.43-4.43,2.26-1.48.84-2.83,1.8-4.07,2.87-1.24,1.07-2.33,2.26-3.27,3.57-.94,1.31-1.66,2.79-2.17,4.43l-.6,2.06c1.41-.49,2.55-.84,3.42-1.07.87-.23,1.74-.34,2.62-.34,1.91,0,3.36.51,4.33,1.54.97,1.03,1.46,2.79,1.46,5.28v4.75h-33.57v-12.89h-2.62v16.66c0,.91-.04,1.78-.1,2.62-.07.84-.25,1.59-.53,2.24-.29.65-.72,1.18-1.28,1.59-.57.4-1.34.6-2.31.6v2.62c1.54,0,2.77-.29,3.67-.88.91-.59,1.59-1.35,2.06-2.29.47-.94.77-1.98.91-3.12.13-1.14.2-2.27.2-3.38v-1.16h36.19v-7.35Z" style="fill: #fff;"/>
    <polygon points="28.45 91.28 28.45 93.65 22.79 93.65 22.79 112.75 20.06 112.75 20.06 93.65 14.41 93.65 14.41 91.28 28.45 91.28" style="fill: #fff;"/>
    <path d="M34.84,93.8h-.06l-3.36,11.45h6.87l-3.45-11.45ZM33.18,91.28h3.48l6.99,21.48h-3.06l-1.55-5.12h-8.3l-1.61,5.12h-2.77l6.81-21.48Z" style="fill: #fff;"/>
    <polygon points="55.6 91.28 55.6 93.65 49.96 93.65 49.96 112.75 47.22 112.75 47.22 93.65 41.57 93.65 41.57 91.28 55.6 91.28" style="fill: #fff;"/>
    <rect x="58.04" y="91.27" width="2.74" height="21.48" style="fill: #fff;"/>
    <polygon points="93.06 91.28 93.06 93.65 87.41 93.65 87.41 112.75 84.67 112.75 84.67 93.65 79.02 93.65 79.02 91.28 93.06 91.28" style="fill: #fff;"/>
    <rect x="95.49" y="91.27" width="2.73" height="21.48" style="fill: #fff;"/>
    <polygon points="155.91 112.75 155.91 91.28 166.98 91.28 166.98 93.65 158.65 93.65 158.65 100.56 166.38 100.56 166.38 102.93 158.65 102.93 158.65 110.37 167.15 110.37 167.15 112.75 155.91 112.75" style="fill: #fff;"/>
    <polygon points="184.91 91.28 184.91 112.75 181.16 112.75 172.69 94.13 172.63 94.13 172.63 112.75 170.19 112.75 170.19 91.28 174.05 91.28 182.41 109.66 182.47 109.66 182.47 91.28 184.91 91.28" style="fill: #fff;"/>
    <polygon points="201.18 91.28 201.18 93.65 195.53 93.65 195.53 112.75 192.79 112.75 192.79 93.65 187.14 93.65 187.14 91.28 201.18 91.28" style="fill: #fff;"/>
    <rect x="123.81" y="43.36" width="2.62" height="26.43" style="fill: #fff;"/>
    <path d="M227.13,67.07c-2.2-.07-3.9-.43-5.12-1.08-1.22-.65-1.82-1.92-1.82-3.8,0-.94.24-1.76.73-2.47.49-.71,1.1-1.31,1.83-1.81.73-.5,1.48-.92,2.28-1.26.79-.33,1.49-.59,2.1-.75v11.17ZM226.56,53.3c-1.35.32-2.7.85-4.03,1.58-1.34.74-2.5,1.71-3.48,2.9-.99,1.19-1.48,2.66-1.48,4.4,0,1.17.16,2.16.47,2.94.31.79.71,1.47,1.21,2.04h-32.99v-12.89h-2.62v16.66c0,.9-.04,1.78-.1,2.62-.07.84-.25,1.58-.53,2.24-.29.65-.72,1.18-1.28,1.59-.57.4-1.34.6-2.31.6v2.62c1.54,0,2.77-.29,3.67-.88.91-.59,1.59-1.35,2.06-2.29.47-.94.77-1.98.91-3.12.13-1.14.2-2.26.2-3.37v-1.16h43.49v-17.06c-.77.06-1.83.26-3.19.58" style="fill: #fff;"/>
    <path d="M7.28,61.68c.54,0,1.13.06,1.76.18.64.12,1.39.36,2.27.73l1.06-2.39c-.67-.33-1.43-.6-2.27-.82-.84-.21-1.71-.32-2.62-.32-.5,0-1.04.08-1.61.22-.57.15-1.1.41-1.59.78-.49.37-.88.86-1.18,1.48-.3.62-.45,1.38-.45,2.28,0,.57.08,1.13.23,1.68.15.55.43,1.11.83,1.67H.13v2.62h11.68v-2.62h-2.52c-.44,0-.89-.06-1.36-.2-.47-.13-.91-.35-1.31-.63-.4-.28-.73-.63-.98-1.03-.25-.4-.38-.89-.38-1.46,0-.77.2-1.32.6-1.66.4-.34.87-.5,1.41-.5" style="fill: #fff;"/>
    <path d="M58.46,67.17h-16.01c.2-.71.58-1.67,1.14-2.9.55-1.22,1.44-2.45,2.65-3.67,1.21-1.22,2.8-2.32,4.77-3.3,1.97-.98,4.45-1.6,7.45-1.87v11.73ZM96.71,65.06c-.2-1.01-.4-2.65-.6-4.93-.23-2.58-.94-4.52-2.11-5.81-1.18-1.29-2.87-1.94-5.09-1.94-1.07,0-2.06.18-2.97.53-.91.35-1.68.76-2.31,1.23l1.61,2.06c1.24-.8,2.45-1.21,3.62-1.21.5,0,1.01.05,1.51.15.5.1.97.33,1.41.68.44.35.81.88,1.11,1.58.3.71.5,1.68.6,2.92.1,1.71.24,3.11.43,4.2.18,1.09.45,1.98.78,2.65h-33.63v-14.55l-1.41.05c-2.42.1-4.55.43-6.42.98-1.86.55-3.5,1.23-4.91,2.04-1.41.8-2.61,1.7-3.6,2.69-.99.99-1.8,1.99-2.44,3v-4.98h-2.62v10.77h-23.4v-23.81h-2.62v26.43h85.68l.1-2.52-1.41-.4c-.67-.2-1.11-.8-1.31-1.81" style="fill: #fff;"/>
    <path d="M106.69,76.84c-.5-.3-.76-.74-.76-1.31,0-.47.13-.81.4-1.03.27-.22.62-.33,1.05-.33.64,0,1.34.17,2.11.5l.5-1.2c-.44-.17-.87-.31-1.31-.43-.43-.11-.89-.18-1.36-.18-.67,0-1.29.21-1.86.61-.57.4-.85,1.07-.85,2.01,0,.37.07.75.23,1.13.15.38.29.61.43.68h-2.32v1.31h7.1v-1.31h-1.51c-.74,0-1.36-.15-1.86-.45" style="fill: #fff;"/>
    <path d="M109.19,67.17c.57-.47,1.07-.91,1.51-1.33.43-.42.85-.86,1.25-1.33.4-.47.8-1.01,1.21-1.61.4-.61.87-1.33,1.4-2.16.78,1.27,1.43,2.48,1.97,3.6.54,1.13.96,2.07,1.26,2.84h-8.61ZM119.78,65.08c-.43-1.03-.96-2.13-1.58-3.32-.62-1.19-1.35-2.42-2.18-3.7,1.07-2.18,1.91-4.39,2.53-6.62.62-2.23.93-4.25.93-6.07v-2.01h-2.62v1.96c0,1.45-.24,3.06-.72,4.83-.48,1.78-1.1,3.57-1.89,5.38-1.14-1.34-2.09-2.46-2.85-3.34-.76-.89-1.46-1.69-2.11-2.39-.66-.71-1.3-1.39-1.94-2.04-.64-.66-1.39-1.42-2.27-2.29l-1.81,1.86c.54.57,1.23,1.3,2.09,2.16.85.87,1.74,1.81,2.67,2.82.92,1.01,1.82,2.03,2.69,3.07.87,1.04,1.61,2,2.21,2.87-.7,1.28-1.46,2.45-2.27,3.53-.8,1.07-1.66,2.01-2.56,2.81-.91.81-1.84,1.44-2.8,1.89-.96.45-1.94.68-2.94.68h-.4v2.62h19.51l-.65-1.96c-.27-.81-.62-1.72-1.06-2.74" style="fill: #fff;"/>
    <polygon points="219.06 112.75 219.06 91.28 230.12 91.28 230.12 93.65 221.8 93.65 221.8 100.56 229.53 100.56 229.53 102.93 221.8 102.93 221.8 110.37 230.31 110.37 230.31 112.75 219.06 112.75" style="fill: #fff;"/>
  </g>
</svg>